<svg xmlns="http://www.w3.org/2000/svg" fill="none" viewBox="0 0 517 344"><g filter="url(#a)"><path fill="#ff589c" d="M306.396 162.516C281.452 106.453 336.584 27.5 429.537-13.832c92.952-41.33 188.527-29.388 213.471 26.675S612.82 147.859 519.867 189.19c-92.952 41.331-188.527 29.388-213.471-26.675"/><path fill="#ffb000" d="M148.102-40.876c-3.965-56.366 123.504-111.253 284.71-122.592 161.205-11.34 295.103 25.162 299.067 81.529C735.844-25.573 608.376 29.314 447.17 40.653c-161.206 11.34-295.103-25.162-299.068-81.529"/><path fill="#ffb000" d="M132.223 103.093C118.034 68.82 173.256 13.43 255.565-20.623c82.308-34.054 160.535-33.875 174.724.398S389.255 69.438 306.947 103.49c-82.309 34.054-160.535 33.876-174.724-.398"/><path fill="#ff0024" d="M295.172 190.979c-12.495-11.885 6.481-52.093 42.383-89.807s75.134-58.653 87.629-46.767c12.494 11.885-6.482 52.093-42.384 89.807s-75.134 58.652-87.628 46.767"/></g><defs><filter id="a" width="861.969" height="639.34" x="0" y="-295.535" color-interpolation-filters="sRGB" filterUnits="userSpaceOnUse"><feFlood flood-opacity="0" result="BackgroundImageFix"/><feBlend in="SourceGraphic" in2="BackgroundImageFix" result="shape"/><feGaussianBlur result="effect1_foregroundBlur_183_1038" stdDeviation="65"/></filter></defs></svg>